<svg width="51" height="50" viewBox="0 0 51 50" fill="none" xmlns="http://www.w3.org/2000/svg">
<rect x="0.5" width="50" height="50" rx="25" fill="white"/>
<path d="M14.225 34.35C15.7833 33.1583 17.525 32.2184 19.45 31.5303C21.375 30.8434 23.3917 30.5 25.5 30.5C27.6083 30.5 29.625 30.8434 31.55 31.5303C33.475 32.2184 35.2167 33.1583 36.775 34.35C37.8444 33.0972 38.6774 31.6764 39.2738 30.0875C39.869 28.4986 40.1667 26.8028 40.1667 25C40.1667 20.9361 38.7385 17.4754 35.8822 14.6178C33.0246 11.7615 29.5639 10.3333 25.5 10.3333C21.4361 10.3333 17.976 11.7615 15.1197 14.6178C12.2621 17.4754 10.8333 20.9361 10.8333 25C10.8333 26.8028 11.1315 28.4986 11.728 30.0875C12.3232 31.6764 13.1555 33.0972 14.225 34.35ZM25.5 26.8333C23.6972 26.8333 22.1768 26.2149 20.9387 24.978C19.7018 23.7399 19.0833 22.2194 19.0833 20.4167C19.0833 18.6139 19.7018 17.0934 20.9387 15.8553C22.1768 14.6184 23.6972 14 25.5 14C27.3028 14 28.8232 14.6184 30.0613 15.8553C31.2982 17.0934 31.9167 18.6139 31.9167 20.4167C31.9167 22.2194 31.2982 23.7399 30.0613 24.978C28.8232 26.2149 27.3028 26.8333 25.5 26.8333ZM25.5 43.3333C22.9639 43.3333 20.5805 42.8518 18.35 41.8887C16.1194 40.9268 14.1792 39.6208 12.5292 37.9708C10.8792 36.3208 9.57321 34.3805 8.61132 32.15C7.64821 29.9194 7.16666 27.5361 7.16666 25C7.16666 22.4639 7.64821 20.0805 8.61132 17.85C9.57321 15.6194 10.8792 13.6792 12.5292 12.0292C14.1792 10.3792 16.1194 9.0726 18.35 8.10949C20.5805 7.1476 22.9639 6.66666 25.5 6.66666C28.0361 6.66666 30.4194 7.1476 32.65 8.10949C34.8805 9.0726 36.8208 10.3792 38.4708 12.0292C40.1208 13.6792 41.4268 15.6194 42.3887 17.85C43.3518 20.0805 43.8333 22.4639 43.8333 25C43.8333 27.5361 43.3518 29.9194 42.3887 32.15C41.4268 34.3805 40.1208 36.3208 38.4708 37.9708C36.8208 39.6208 34.8805 40.9268 32.65 41.8887C30.4194 42.8518 28.0361 43.3333 25.5 43.3333ZM25.5 39.6667C27.1194 39.6667 28.6472 39.4302 30.0833 38.9572C31.5194 38.4829 32.8333 37.8028 34.025 36.9167C32.8333 36.0305 31.5194 35.3504 30.0833 34.8762C28.6472 34.4032 27.1194 34.1667 25.5 34.1667C23.8805 34.1667 22.3528 34.4032 20.9167 34.8762C19.4805 35.3504 18.1667 36.0305 16.975 36.9167C18.1667 37.8028 19.4805 38.4829 20.9167 38.9572C22.3528 39.4302 23.8805 39.6667 25.5 39.6667ZM25.5 23.1667C26.2944 23.1667 26.9514 22.9069 27.4708 22.3875C27.9903 21.868 28.25 21.2111 28.25 20.4167C28.25 19.6222 27.9903 18.9653 27.4708 18.4458C26.9514 17.9264 26.2944 17.6667 25.5 17.6667C24.7055 17.6667 24.0486 17.9264 23.5292 18.4458C23.0097 18.9653 22.75 19.6222 22.75 20.4167C22.75 21.2111 23.0097 21.868 23.5292 22.3875C24.0486 22.9069 24.7055 23.1667 25.5 23.1667Z" fill="#37AC6D"/>
</svg>
