<svg width="51" height="50" viewBox="0 0 51 50" fill="none" xmlns="http://www.w3.org/2000/svg">
<rect x="0.5" width="50" height="50" rx="25" fill="white"/>
<path d="M14.5 44.25C13.4917 44.25 12.6288 43.8913 11.9113 43.1738C11.1927 42.4552 10.8333 41.5917 10.8333 40.5833V22.25C10.8333 21.2417 11.1927 20.3782 11.9113 19.6595C12.6288 18.9421 13.4917 18.5833 14.5 18.5833H16.3333V14.9167C16.3333 12.3806 17.2274 10.2184 19.0155 8.43033C20.8024 6.64344 22.9639 5.75 25.5 5.75C28.0361 5.75 30.1982 6.64344 31.9863 8.43033C33.7732 10.2184 34.6667 12.3806 34.6667 14.9167V18.5833H36.5C37.5083 18.5833 38.3718 18.9421 39.0905 19.6595C39.808 20.3782 40.1667 21.2417 40.1667 22.25V40.5833C40.1667 41.5917 39.808 42.4552 39.0905 43.1738C38.3718 43.8913 37.5083 44.25 36.5 44.25H14.5ZM14.5 40.5833H36.5V22.25H14.5V40.5833ZM25.5 35.0833C26.5083 35.0833 27.3718 34.7246 28.0905 34.0072C28.808 33.2885 29.1667 32.425 29.1667 31.4167C29.1667 30.4083 28.808 29.5448 28.0905 28.8262C27.3718 28.1087 26.5083 27.75 25.5 27.75C24.4917 27.75 23.6288 28.1087 22.9113 28.8262C22.1927 29.5448 21.8333 30.4083 21.8333 31.4167C21.8333 32.425 22.1927 33.2885 22.9113 34.0072C23.6288 34.7246 24.4917 35.0833 25.5 35.0833ZM20 18.5833H31V14.9167C31 13.3889 30.4653 12.0903 29.3958 11.0208C28.3264 9.95139 27.0278 9.41667 25.5 9.41667C23.9722 9.41667 22.6736 9.95139 21.6042 11.0208C20.5347 12.0903 20 13.3889 20 14.9167V18.5833Z" fill="#37AC6D"/>
</svg>
